<?xml version="1.0" standalone="no"?>
<!DOCTYPE svg PUBLIC "-//W3C//DTD SVG 20010904//EN"
 "http://www.w3.org/TR/2001/REC-SVG-20010904/DTD/svg10.dtd">
<svg version="1.0" xmlns="http://www.w3.org/2000/svg"
 width="386.000000pt" height="566.000000pt" viewBox="0 0 386.000000 566.000000"
 preserveAspectRatio="xMidYMid meet">

<g transform="translate(0.000000,566.000000) scale(0.100000,-0.100000)"
fill="#000000" stroke="none">
<path d="M0 2610 l0 -2600 345 0 345 0 0 2600 0 2600 -345 0 -345 0 0 -2600z"/>
<path d="M1140 4230 l0 -970 460 0 460 0 0 320 0 320 440 0 440 0 0 -1295 0
-1295 -440 0 -440 0 0 320 0 320 -460 0 -460 0 0 -970 0 -970 920 0 920 0 0
645 0 645 440 0 440 0 0 1300 0 1300 -440 0 -440 0 0 650 0 650 -920 0 -920 0
0 -970z"/>
</g>
</svg>
